<?xml version="1.0" encoding="UTF-8"?>
<svg width="109px" height="30px" viewBox="0 0 109 30" version="1.1" xmlns="http://www.w3.org/2000/svg" xmlns:xlink="http://www.w3.org/1999/xlink">
    <!-- Generator: Sketch 45.1 (43504) - http://www.bohemiancoding.com/sketch -->
    <title>Combined Shape</title>
    <desc>Created with Sketch.</desc>
    <defs></defs>
    <g id="Page-1" stroke="none" stroke-width="1" fill="none" fill-rule="evenodd">
        <g id="contact-us-copy" transform="translate(-17.000000, -17.000000)" fill="#000000">
            <g id="header" transform="translate(17.000000, 17.000000)">
                <g id="Group-4">
                    <path d="M43.875,13.3847656 C44.8593799,13.3847656 45.623858,13.7208625 46.168457,14.3930664 C46.7130561,15.0652703 46.9853516,16.0165954 46.9853516,17.2470703 C46.9853516,18.4775452 46.7107775,19.4334276 46.1616211,20.1147461 C45.6124647,20.7960646 44.8502653,21.1367188 43.875,21.1367188 C43.3873674,21.1367188 42.9418965,21.0467131 42.5385742,20.8666992 C42.1352519,20.6866853 41.7968764,20.4098326 41.5234375,20.0361328 L41.4414062,20.0361328 L41.2021484,21 L40.3886719,21 L40.3886719,10.3632812 L41.5234375,10.3632812 L41.5234375,12.9472656 C41.5234375,13.5260446 41.5052085,14.0455706 41.46875,14.5058594 L41.5234375,14.5058594 C42.052086,13.7584598 42.8359323,13.3847656 43.875,13.3847656 Z M43.7109375,14.3349609 C42.936194,14.3349609 42.3779314,14.5571267 42.0361328,15.0014648 C41.6943342,15.445803 41.5234375,16.1943307 41.5234375,17.2470703 C41.5234375,18.29981 41.6988915,19.0528949 42.0498047,19.5063477 C42.4007179,19.9598004 42.9635378,20.1865234 43.7382812,20.1865234 C44.4355504,20.1865234 44.9550764,19.932457 45.296875,19.4243164 C45.6386736,18.9161758 45.8095703,18.1858772 45.8095703,17.2333984 C45.8095703,16.2581331 45.6386736,15.5312524 45.296875,15.0527344 C44.9550764,14.5742164 44.4264359,14.3349609 43.7109375,14.3349609 Z M47.4980469,13.5078125 L48.7148438,13.5078125 L50.3554688,17.7802734 C50.7154966,18.7555387 50.9388017,19.4596333 51.0253906,19.8925781 L51.0800781,19.8925781 C51.1393232,19.6601551 51.2635082,19.2625354 51.4526367,18.699707 C51.6417653,18.1368787 52.2604114,16.4062645 53.3085938,13.5078125 L54.5253906,13.5078125 L51.3056641,22.0390625 C50.9866521,22.8821657 50.6140972,23.4803042 50.1879883,23.8334961 C49.7618794,24.186688 49.2389354,24.3632812 48.6191406,24.3632812 C48.2727847,24.3632812 47.9309913,24.3245447 47.59375,24.2470703 L47.59375,23.3378906 C47.8444023,23.3925784 48.1246729,23.4199219 48.4345703,23.4199219 C49.2138711,23.4199219 49.7698551,22.9824262 50.1025391,22.1074219 L50.5195312,21.0410156 L47.4980469,13.5078125 Z M59.5498047,21 L59.5498047,11.0058594 L60.7119141,11.0058594 L60.7119141,21 L59.5498047,21 Z M68.4091797,21 L68.4091797,16.1533203 C68.4091797,15.5426402 68.2701837,15.0869156 67.9921875,14.7861328 C67.7141913,14.4853501 67.2789743,14.3349609 66.6865234,14.3349609 C65.9026654,14.3349609 65.3284523,14.5468729 64.9638672,14.9707031 C64.599282,15.3945334 64.4169922,16.0940706 64.4169922,17.0693359 L64.4169922,21 L63.2822266,21 L63.2822266,13.5078125 L64.2050781,13.5078125 L64.3896484,14.5332031 L64.4443359,14.5332031 C64.676759,14.1640607 65.0026021,13.8780935 65.421875,13.675293 C65.8411479,13.4724925 66.3082657,13.3710938 66.8232422,13.3710938 C67.7255904,13.3710938 68.4046201,13.5887023 68.8603516,14.0239258 C69.316083,14.4591493 69.5439453,15.1552687 69.5439453,16.1123047 L69.5439453,21 L68.4091797,21 Z M77.7539062,11.0058594 L79.0048828,11.0058594 L75.4023438,21 L74.2539062,21 L70.671875,11.0058594 L71.9023438,11.0058594 L74.1992188,17.4726562 C74.463543,18.2154985 74.6731763,18.937822 74.828125,19.6396484 C74.9921883,18.9013635 75.2063789,18.1653683 75.4707031,17.4316406 L77.7539062,11.0058594 Z M81.3427734,21 L80.2080078,21 L80.2080078,13.5078125 L81.3427734,13.5078125 L81.3427734,21 Z M80.1123047,11.4775391 C80.1123047,11.2177721 80.1761061,11.0275071 80.3037109,10.9067383 C80.4313157,10.7859694 80.5908194,10.7255859 80.7822266,10.7255859 C80.9645191,10.7255859 81.1217441,10.7871088 81.2539062,10.9101562 C81.3860684,11.0332037 81.4521484,11.2223295 81.4521484,11.4775391 C81.4521484,11.7327487 81.3860684,11.9230137 81.2539062,12.0483398 C81.1217441,12.173666 80.9645191,12.2363281 80.7822266,12.2363281 C80.5908194,12.2363281 80.4313157,12.173666 80.3037109,12.0483398 C80.1761061,11.9230137 80.1123047,11.7327487 80.1123047,11.4775391 Z M88.5820312,18.9560547 C88.5820312,19.6533238 88.3222682,20.1910788 87.8027344,20.5693359 C87.2832005,20.947593 86.5540412,21.1367188 85.6152344,21.1367188 C84.6217398,21.1367188 83.847008,20.9794938 83.2910156,20.6650391 L83.2910156,19.6123047 C83.6510435,19.7945973 84.0372701,19.9381505 84.449707,20.0429688 C84.862144,20.147787 85.2597637,20.2001953 85.6425781,20.2001953 C86.235029,20.2001953 86.6907536,20.1056325 87.0097656,19.9165039 C87.3287776,19.7273754 87.4882812,19.4391295 87.4882812,19.0517578 C87.4882812,18.7600897 87.3618177,18.5105805 87.1088867,18.3032227 C86.8559558,18.0958648 86.3626339,17.8509129 85.6289062,17.5683594 C84.9316371,17.3085925 84.4360366,17.0818695 84.1420898,16.8881836 C83.8481431,16.6944977 83.6293952,16.4746106 83.4858398,16.2285156 C83.3422844,15.9824206 83.2705078,15.6884783 83.2705078,15.3466797 C83.2705078,14.7359996 83.5188777,14.2540708 84.015625,13.9008789 C84.5123723,13.547687 85.1936806,13.3710938 86.0595703,13.3710938 C86.866215,13.3710938 87.6546185,13.5351546 88.4248047,13.8632812 L88.0214844,14.7861328 C87.2695275,14.4762354 86.5882192,14.3212891 85.9775391,14.3212891 C85.439776,14.3212891 85.0341811,14.4055981 84.7607422,14.5742188 C84.4873033,14.7428394 84.3505859,14.9752589 84.3505859,15.2714844 C84.3505859,15.4720062 84.401855,15.6429029 84.5043945,15.7841797 C84.6069341,15.9254564 84.7721343,16.0598952 85,16.1875 C85.2278657,16.3151048 85.6653613,16.4996733 86.3125,16.7412109 C87.2011763,17.0647803 87.8015935,17.3906234 88.1137695,17.71875 C88.4259456,18.0468766 88.5820312,18.4593074 88.5820312,18.9560547 Z M91.5625,21 L90.4277344,21 L90.4277344,13.5078125 L91.5625,13.5078125 L91.5625,21 Z M90.3320312,11.4775391 C90.3320312,11.2177721 90.3958327,11.0275071 90.5234375,10.9067383 C90.6510423,10.7859694 90.8105459,10.7255859 91.0019531,10.7255859 C91.1842457,10.7255859 91.3414707,10.7871088 91.4736328,10.9101562 C91.6057949,11.0332037 91.671875,11.2223295 91.671875,11.4775391 C91.671875,11.7327487 91.6057949,11.9230137 91.4736328,12.0483398 C91.3414707,12.173666 91.1842457,12.2363281 91.0019531,12.2363281 C90.8105459,12.2363281 90.6510423,12.173666 90.5234375,12.0483398 C90.3958327,11.9230137 90.3320312,11.7327487 90.3320312,11.4775391 Z M100.435547,17.2470703 C100.435547,18.4684306 100.127933,19.4220343 99.5126953,20.1079102 C98.8974579,20.793786 98.0475315,21.1367188 96.9628906,21.1367188 C96.2929654,21.1367188 95.6982448,20.9794938 95.1787109,20.6650391 C94.6591771,20.3505844 94.2581394,19.899417 93.9755859,19.3115234 C93.6930324,18.7236299 93.5517578,18.0354857 93.5517578,17.2470703 C93.5517578,16.02571 93.8570933,15.0743849 94.4677734,14.3930664 C95.0784536,13.7117479 95.9261013,13.3710938 97.0107422,13.3710938 C98.0589245,13.3710938 98.8917612,13.7197231 99.5092773,14.4169922 C100.126793,15.1142613 100.435547,16.0576112 100.435547,17.2470703 Z M94.7275391,17.2470703 C94.7275391,18.2041063 94.9189434,18.9332657 95.3017578,19.4345703 C95.6845722,19.9358749 96.2473921,20.1865234 96.9902344,20.1865234 C97.7330766,20.1865234 98.2970358,19.9370142 98.6821289,19.4379883 C99.067222,18.9389623 99.2597656,18.2086637 99.2597656,17.2470703 C99.2597656,16.2945916 99.067222,15.5711288 98.6821289,15.0766602 C98.2970358,14.5821915 97.7285194,14.3349609 96.9765625,14.3349609 C96.2337202,14.3349609 95.673179,14.5787736 95.2949219,15.0664062 C94.9166648,15.5540389 94.7275391,16.2809196 94.7275391,17.2470703 Z M107.551758,21 L107.551758,16.1533203 C107.551758,15.5426402 107.412762,15.0869156 107.134766,14.7861328 C106.856769,14.4853501 106.421552,14.3349609 105.829102,14.3349609 C105.045243,14.3349609 104.47103,14.5468729 104.106445,14.9707031 C103.74186,15.3945334 103.55957,16.0940706 103.55957,17.0693359 L103.55957,21 L102.424805,21 L102.424805,13.5078125 L103.347656,13.5078125 L103.532227,14.5332031 L103.586914,14.5332031 C103.819337,14.1640607 104.14518,13.8780935 104.564453,13.675293 C104.983726,13.4724925 105.450844,13.3710938 105.96582,13.3710938 C106.868169,13.3710938 107.547198,13.5887023 108.00293,14.0239258 C108.458661,14.4591493 108.686523,15.1552687 108.686523,16.1123047 L108.686523,21 L107.551758,21 Z M30,2.71254408 L30,27.2874559 C30,28.7855668 28.7855668,30 27.2874559,30 L2.71254408,30 C1.21443325,30 0,28.7855668 0,27.2874559 L0,2.71254408 C0,1.21443325 1.21443325,0 2.71254408,0 L27.2874559,0 C28.7855668,0 30,1.21443325 30,2.71254408 Z M20.5414232,19.810724 C20.5498232,19.714524 20.5580232,19.697524 20.5414232,19.810724 Z M24.4149748,19.7077783 C24.2653526,19.478131 23.9568136,19.4032443 23.7261839,19.6695416 C23.5373426,19.8581562 23.3747229,20.0632443 23.2043199,20.269466 C20.5547985,22.1674761 20.5084005,20.2927406 20.5385516,19.8295164 C20.6593829,19.3180806 20.8198111,18.8754106 21.0180982,18.4002469 C21.5052015,17.1844534 22.1625567,16.1751839 22.6902393,14.9593904 C23.0149496,14.1893652 23.3802393,13.4193401 23.6642947,12.6088111 C23.867267,12.0414559 23.745529,11.4335214 23.3395844,10.9472494 C22.893136,10.5014055 22.3249496,10.420398 21.6349496,10.5824887 C20.701398,10.8256625 19.8490806,11.3119345 19.1185013,11.919869 C18.9967632,12.0414559 18.8343703,12.1224635 18.7126322,12.2440504 C18.7126322,12.1224635 18.7532116,12.0414559 18.7532116,11.9603728 C18.9561839,11.3119345 19.1996599,10.7040756 18.915529,9.97455416 C18.7937909,9.6503728 18.6314736,9.36669521 18.3067632,9.16402519 C17.6167632,8.79934005 16.9673426,8.88034761 16.3585013,9.04251385 C15.3438665,9.32619144 14.5320529,9.93405038 13.8014736,10.6229924 C13.5985768,10.8256625 13.3550252,11.0282569 13.1521285,11.2714307 C13.2332872,10.8256625 13.3550252,10.420398 13.3550252,9.97455416 C13.3550252,8.88034761 12.7056045,8.19140554 11.6097355,7.82664484 C10.7574181,7.5835466 9.90510076,7.62405038 9.05270781,7.78614106 C8.20039043,7.94823174 7.38865239,8.23198489 6.65807305,8.71825693 C6.17104534,9.04251385 5.72452141,9.40719899 5.48104534,10.0151335 C5.35923174,10.3393149 5.35923174,10.7040756 5.48104534,11.0688363 C5.64336272,11.5146045 6.13039043,11.7577783 6.6174937,11.3930176 C7.1856801,11.0282569 7.67278338,10.5824887 8.24096977,10.1772242 C9.09336272,9.52878589 9.9456801,8.96143073 11.0821285,8.88034761 C11.4474181,8.83984383 11.7721285,9.00193451 11.8938665,9.36669521 C11.9344458,9.52878589 11.9750252,9.7719597 11.8938665,9.93405038 C11.7721285,10.3393149 11.6503904,10.7445793 11.4474181,11.1093401 C10.9198111,12.0414559 10.3515491,12.9329924 9.74270781,13.8651083 C8.97154912,15.040398 8.11923174,16.2156877 7.34807305,17.3909773 C6.77981108,18.2420101 6.25220403,19.1336222 5.76517632,19.9846549 C5.52162469,20.3899194 5.35923174,20.8356877 5.44046599,21.3220353 C5.52162469,22.0109773 6.45510076,22.375738 6.90162469,22.173068 C7.34807305,21.9704736 7.59154912,21.6057128 7.83510076,21.2409521 C8.28154912,20.470927 8.72807305,19.7009773 9.17452141,18.9309521 C10.3109698,16.8641259 11.5691562,14.8783073 13.0303149,13.0545793 C13.7608942,12.1224635 14.5727078,11.2714307 15.5467632,10.5824887 C15.9932116,10.2988111 16.4397355,10.0556373 17.0079219,10.0151335 C17.2108942,9.97455416 17.3732116,10.0961411 17.4137909,10.2988111 C17.4543703,10.5419849 17.5356045,10.8256625 17.4543703,11.0688363 C17.2920529,11.5956121 17.0890806,12.1224635 16.8050252,12.6088111 C15.7903149,14.3514559 14.7350252,16.0941008 13.7203149,17.8367456 C13.2738665,18.5661914 12.8679975,19.3767204 12.5027078,20.1467456 C12.2997355,20.5520101 12.5027078,21.1193652 12.9491562,21.3220353 C13.4361839,21.5652091 14.0044458,21.5652091 14.2479975,21.0788615 C15.1408942,19.3362166 16.0744458,17.5935718 17.0079219,15.8914307 C17.7385013,14.5135466 18.7126322,13.2977531 20.0519773,12.4062166 C20.5390806,12.0819597 21.0261083,11.8387859 21.6349496,11.717199 C21.9596599,11.6361914 22.203136,11.7982821 22.1625567,12.1224635 C22.1625567,12.3251335 22.1219773,12.527728 22.0002393,12.6898942 C21.5943703,13.4598438 21.1479219,14.1893652 20.7419773,14.9593904 C20.0519773,16.1346045 19.3214736,17.3098942 18.9561839,18.6877783 C18.7937909,19.2957128 18.6720529,19.9441511 18.915529,20.6330932 C19.2499874,21.5437481 20.1966121,22.2559647 21.2135894,22.2836222 C21.2502393,22.29133 21.2920277,22.2977531 21.3403904,22.3025139 C21.8569647,22.3311537 22.3371159,22.2006499 22.8017758,22.0018338 C23.2663602,21.8030932 23.69233,21.5411788 24.0459824,21.1758892 C24.2818262,20.9323375 24.4893325,20.6711788 24.5500882,20.2991637 C24.5778212,20.1017834 24.5310453,19.897073 24.4149748,19.7077783 Z" id="Combined-Shape"></path>
                </g>
            </g>
        </g>
    </g>
</svg>